<svg width="40" height="40" viewBox="0 0 26 26" fill="none" xmlns="http://www.w3.org/2000/svg">
<path d="M12.6784 11.6219C13.5142 11.6219 14.3313 11.374 15.0263 10.9096C15.7213 10.4453 16.263 9.78524 16.5828 9.01302C16.9027 8.24079 16.9864 7.39106 16.8233 6.57127C16.6603 5.75148 16.2578 4.99846 15.6667 4.40742C15.0757 3.81639 14.3227 3.41389 13.5029 3.25082C12.6831 3.08776 11.8334 3.17145 11.0611 3.49131C10.2889 3.81118 9.62888 4.35285 9.1645 5.04784C8.70013 5.74282 8.45227 6.5599 8.45227 7.39575C8.45227 8.51659 8.89752 9.59152 9.69007 10.3841C10.4826 11.1766 11.5576 11.6219 12.6784 11.6219Z" fill="#46A5C5"/>
<path d="M19.0176 22.1872C19.2978 22.1872 19.5665 22.0759 19.7647 21.8777C19.9628 21.6796 20.0741 21.4109 20.0741 21.1307C20.0741 19.1692 19.2949 17.2881 17.9079 15.9011C16.521 14.5141 14.6398 13.7349 12.6784 13.7349C10.7169 13.7349 8.83578 14.5141 7.44881 15.9011C6.06184 17.2881 5.28265 19.1692 5.28265 21.1307C5.28265 21.4109 5.39397 21.6796 5.59211 21.8777C5.79024 22.0759 6.05898 22.1872 6.33919 22.1872H19.0176Z" fill="#46A5C5"/>
</svg>
