<svg width="28" height="28" viewBox="0 0 28 28" fill="none" xmlns="http://www.w3.org/2000/svg">
<path d="M0 15.3052V12.6947C0 11.1522 1.18941 9.87666 2.65867 9.87666C5.1914 9.87666 6.22689 7.97813 4.95352 5.64946C4.22589 4.31456 4.65967 2.57918 5.93303 1.80791L8.35382 0.339513C9.45927 -0.357604 10.8866 0.0576993 11.5442 1.22945L11.6982 1.51126C12.9575 3.83993 15.0285 3.83993 16.3018 1.51126L16.4558 1.22945C17.1134 0.0576993 18.5407 -0.357604 19.6462 0.339513L22.067 1.80791C23.3403 2.57918 23.7741 4.31456 23.0465 5.64946C21.7731 7.97813 22.8086 9.87666 25.3413 9.87666C26.7966 9.87666 28 11.1373 28 12.6947V15.3052C28 16.8478 26.8106 18.1233 25.3413 18.1233C22.8086 18.1233 21.7731 20.0219 23.0465 22.3505C23.7741 23.7003 23.3403 25.4208 22.067 26.1921L19.6462 27.6605C18.5407 28.3576 17.1134 27.9423 16.4558 26.7706L16.3018 26.4887C15.0425 24.1601 12.9715 24.1601 11.6982 26.4887L11.5442 26.7706C10.8866 27.9423 9.45927 28.3576 8.35382 27.6605L5.93303 26.1921C4.65967 25.4208 4.22589 23.6854 4.95352 22.3505C6.22689 20.0219 5.1914 18.1233 2.65867 18.1233C1.18941 18.1233 0 16.8478 0 15.3052Z" fill="white"/>
<path d="M13.993 18.8206C16.5046 18.8206 18.5408 16.6624 18.5408 14.0001C18.5408 11.3379 16.5046 9.17963 13.993 9.17963C11.4814 9.17963 9.44531 11.3379 9.44531 14.0001C9.44531 16.6624 11.4814 18.8206 13.993 18.8206Z" fill="#292D32"/>
</svg>
