<svg width="27" height="27" viewBox="0 0 27 27" fill="none" xmlns="http://www.w3.org/2000/svg">
<path d="M13.5 26C20.4036 26 26 20.4036 26 13.5C26 6.59644 20.4036 1 13.5 1C6.59644 1 1 6.59644 1 13.5C1 20.4036 6.59644 26 13.5 26Z" fill="white" stroke="white" stroke-width="1.5" stroke-linecap="round" stroke-linejoin="round"/>
<path d="M17.718 5C15.9985 5 14.4595 5.88989 13.5 7.25505C12.5405 5.88989 11.0015 5 9.282 5C6.3655 5 4 7.52808 4 10.6528C4 11.8562 4.1805 12.9686 4.494 14C5.995 19.0562 10.6215 22.0798 12.911 22.909C13.234 23.0303 13.766 23.0303 14.089 22.909C16.3785 22.0798 21.005 19.0562 22.506 14C22.8195 12.9686 23 11.8562 23 10.6528C23 7.52808 20.6345 5 17.718 5Z" fill="#292D32"/>
</svg>
