<svg width="27" height="27" viewBox="0 0 27 27" fill="none" xmlns="http://www.w3.org/2000/svg">
<path d="M13.5 26C20.4036 26 26 20.4036 26 13.5C26 6.59644 20.4036 1 13.5 1C6.59644 1 1 6.59644 1 13.5C1 20.4036 6.59644 26 13.5 26Z" fill="white" stroke="white" stroke-width="1.5" stroke-linecap="round" stroke-linejoin="round"/>
<path d="M16.83 7C15.4725 7 14.2575 7.69213 13.5 8.75393C12.7425 7.69213 11.5275 7 10.17 7C7.8675 7 6 8.96629 6 11.3966C6 12.3326 6.1425 13.1978 6.39 14C7.575 17.9326 11.2275 20.2843 13.035 20.9292C13.29 21.0236 13.71 21.0236 13.965 20.9292C15.7725 20.2843 19.425 17.9326 20.61 14C20.8575 13.1978 21 12.3326 21 11.3966C21 8.96629 19.1325 7 16.83 7Z" fill="#F70707"/>
</svg>
