<svg width="24" height="24" viewBox="0 0 16 14" fill="none" xmlns="http://www.w3.org/2000/svg">
<g clip-path="url(#clip0_215_20)">
<path d="M9.84375 4.6875C9.84375 7.96875 5.625 10.7812 5.625 10.7812C5.625 10.7812 1.40625 7.96875 1.40625 4.6875C1.40625 3.56862 1.85072 2.49556 2.64189 1.70439C3.43306 0.913224 4.50612 0.46875 5.625 0.46875C6.74388 0.46875 7.81694 0.913224 8.60811 1.70439C9.39928 2.49556 9.84375 3.56862 9.84375 4.6875Z" stroke="#4D4D4D" stroke-linecap="round" stroke-linejoin="round"/>
<path d="M5.625 6.09375C6.40165 6.09375 7.03125 5.46415 7.03125 4.6875C7.03125 3.91085 6.40165 3.28125 5.625 3.28125C4.84835 3.28125 4.21875 3.91085 4.21875 4.6875C4.21875 5.46415 4.84835 6.09375 5.625 6.09375Z" stroke="#4D4D4D" stroke-linecap="round" stroke-linejoin="round"/>
</g>
<defs>
<clipPath id="clip0_215_20">
<rect width="11.25" height="11.25" fill="white"/>
</clipPath>
</defs>
</svg>
