<svg width="20" height="20" viewBox="0 0 16 16" fill="none" xmlns="http://www.w3.org/2000/svg">
<path d="M6.625 12.25C9.73163 12.25 12.25 9.73163 12.25 6.625C12.25 3.5184 9.73163 1 6.625 1C3.5184 1 1 3.5184 1 6.625C1 9.73163 3.5184 12.25 6.625 12.25Z" stroke="#4D4D4D" stroke-width="1.3" stroke-linecap="round" stroke-linejoin="round"/>
<path d="M4.75 9.125H6.625H7.25C7.66669 9.125 8.5 8.875 8.5 7.875C8.5 6.875 7.66669 6.625 7.25 6.625H6C5.58331 6.625 4.75 6.375 4.75 5.375C4.75 4.375 5.58331 4.125 6 4.125H6.625H8.5" stroke="#4D4D4D" stroke-width="1.3" stroke-linecap="round" stroke-linejoin="round"/>
<path d="M6.625 9.125V10.375" stroke="#4D4D4D" stroke-width="1.3" stroke-linecap="round" stroke-linejoin="round"/>
<path d="M6.625 4.125V2.875" stroke="#4D4D4D" stroke-width="1.3" stroke-linecap="round" stroke-linejoin="round"/>
</svg>
